<svg xmlns="http://www.w3.org/2000/svg" xmlns:xlink="http://www.w3.org/1999/xlink" viewBox="0 0 328.8 123.16"><g fill="#fff"><path d="M4.5 113.74c.14-.05.33-.21.35-.33.03-.25-.22-.3-.41-.32-.11-.02-.23.05-.35.06-.15.01-.32.05-.46.01-.23-.06-.45-.19-.67.01-.19.17-.38.34-.53.55-.05.07.02.27.09.35.09.09.25.1.36.14l.44-.1 1.18-.37zm-1.16-1.68a.57.57 0 0 0-.6-.6.58.58 0 0 0-.56.52c-.02.26.32.59.62.61.27.02.53-.24.54-.53zm38.75-31.53c-.55-1.35-.95-2.75-1.06-4.22-.11-1.41.14-2.7 1.22-3.74.36-.35.76-.51 1.25-.42.43.08.57.29.47.72-.03.16-.11.31-.11.46 0 .14.04.36.14.41a.6.6 0 0 0 .49-.01c.16-.09.3-.26.4-.42.48-.78.64-1.64.54-2.53-.14-1.27-.97-2.03-2.26-2.13-.14-.01-.28-.01-.42-.04-.6-.1-.8-.52-.47-1.04.23-.35.5-.68.75-1.01.71-.94 1-2.02 1.14-3.17.14-1.21.01-2.39-.23-3.57-.3-1.52-1.05-2.77-2.2-3.81-1.21-1.1-2.57-1.02-3.98-.59-.18.05-.35.19-.5.32-.52.44-.8 1.04-1.06 1.65-.09.21-.1.47-.09.7.03.53.47.9 1.01.9.61 0 .91-.28.95-.9.01-.12.01-.24.01-.36.02-.49.23-.8.61-.93.42-.14.75-.06 1.05.35.75 1.04 1.05 2.19.66 3.44-.43 1.4-1.24 2.59-2.1 3.74-.98 1.31-1.66 2.76-2.16 4.31-.49 1.52-.73 3.04-.5 4.65.27 1.85.68 3.64 1.62 5.29.07.12.13.25.19.38.22.51.11.71-.43.84-.56.14-1.02.42-1.35.91-.38.56-.76 1.12-.94 1.79-.06.23-.16.41-.43.42s-.38-.17-.48-.37c-.64-1.21-1.04-2.5-1.34-3.83-.07-.32.1-.64.41-.75.2-.07.43-.09.64-.11l.89-.11c.12-.02.29-.14.31-.23.02-.13-.05-.32-.15-.41-.19-.17-.43-.29-.65-.42-.67-.4-1.04-.95-1.02-1.77l-.08-2.27c-.05-.95-.08-.97.84-1.15.49-.09.78-.53.64-.97-.07-.21-.23-.44-.42-.56-.79-.49-1.01-1.32-1.06-2.11-.07-1.09.18-2.13 1.15-2.88.46-.35.73-.86.68-1.48l-.04-.67c.01-1.26-.22-2.56.2-3.78.23-.67.34-1.34.44-2.03.15-1.01.07-1.99-.18-2.97-.22-.86-.63-1.21-1.49-1.3-.38-.04-.65.08-.76.33s-.03.43.34.72c.38.3.42.66.1 1.03-.38.44-.86.71-1.45.76-1.2.09-2.38.06-3.51-.42-.91-.38-1.88-.61-2.87-.59-.36.01-.72 0-1.08-.05-.31-.04-.63-.1-.92-.22-.81-.32-1.51-.18-2.13.46-.1.1-.19.21-.3.29-.48.32-.52.78-.41 1.27.06.27.21.52.26.8.05.33.15.71.03.99-.24.55-.25 1.08-.14 1.63.01.07-.04.15-.06.24l-.48.08c-.47.07-.91.11-1.21-.39-.14-.23-.39-.18-.57 0a.92.92 0 0 0-.28.76c.05.97.51 1.72 1.24 2.29.5.39 1.08.68 1.62 1.01.11.07.2.16.32.26-.07.1-.11.17-.16.22-.91.86-.88 1.79.07 2.6.1.09.18.2.27.29-.62 1.03-2.38 1.13-3.19.22-.57-.64-.57-.64-1.37-.36-.67.24-.84.15-1.02-.54l-1.54-6.03c-.42-1.75-.53-1.35.51-3.05.35-.58.7-1.17.75-1.87.08-1.12-.29-2.12-.83-3.07-.11-.19-.27-.36-.44-.49-.13-.1-.31-.11-.47-.17l-.09.44c-.01.08 0 .16 0 .24-.08.74-.59 1.02-1.22.62-.89-.57-1.86-.91-2.86-1.19-.41-.11-.55-.9-.55-.9l-.02-2.28a.59.59 0 0 1 .59-.59h.33l27.5.01c.59 0 1.02-.25 1.42-.64.4-.4.68-.79.68-1.43l-.02-25.46v-.54c-.06-.63-.56-1.02-.83-1.54-.43-.12-.79-.4-1.29-.4l-26.36.1h-.42l-.15-.03a.29.29 0 0 1-.21-.35l.03-.11c.33-.77.12-1.39-.49-1.93-.11-.1-.22-.25-.24-.39-.08-.59-.03-1.15.46-1.59l1.5-1.46c.24-.23.3-.45.18-.76-.08-.21-3.18-9.14-4-11.44-.07-.2-.34-.2-.42-.01C6.5 2.4 3.24 11.16 3.12 11.36c-.44.8-.24.41 1.04 2.01.23.29.52.54.82.77.63.48.61 1.38-.04 1.72-.9.47-.93 1.91-.12 2.35.45.25.6.64.58 1.13l-.02.89.06 23.15.01 8.39c0 .43-.12.68-.53.87-.37.17-.7.46-.97.77-.3.34-.23.6.16.98.38-.08.75-.41 1.24-.15.01.17.04.36.04.55l.04 22.95c0 .77-.06.85-.79 1.14-.09.04-.18.08-.28.1-.69.16-1.09.62-1.17 1.28-.09.81-.54 1.39-1.06 1.96-1.04 1.12-.82 2.39-.18 3.44.05.08.15.18.22.23.35.25.59.19.7-.24.17-.68.66-1.04 1.23-1.32.52-.25 1.04 0 1.11.57.02.15.01.3.01.45 0 1.04-.04 2.08.01 3.11.08 1.7-.19 3.35-.56 4.98-.47 2.06-1.03 4.1-1.55 6.15-.05.21-.12.42-.15.64-.08.64.12.86.75.82.36-.02.71-.08 1.07-.1.34-.02.68-.05 1.01-.01.43.04.43.19.38.76-.03.38-.04.77-.05 1.15 0 .58-.08.68-.67.68-.38 0-.77-.03-1.15-.01-.48.03-.89.39-.93.87-.03.32.09.59.3.83s.4.5.62.73c.21.22.17.44.04.67a.92.92 0 0 1-1.29.31c-.45-.28-.67-.25-1.01.17-.2.25-.43.34-.73.3-.2-.02-.4-.05-.6-.04-.39.02-.6.22-.69.62-.1.45.01.72.37.91.53.28.88.19 1.26-.33.15-.2.31-.4.59-.29.39.15.77.32 1.14.51a.39.39 0 0 1 .18.33c-.01.1-.15.23-.27.27-.14.06-.32.04-.47.08a.64.64 0 0 0-.51.76c.06.35.29.54.69.51.23-.02.46-.12.7-.15.31-.04.63-.09.94-.05.12.01.26.23.29.38.02.07-.18.22-.31.29-.12.06-.28.04-.41.09-.27.1-.39.42-.28.69.11.26.35.37.64.26.13-.05.23-.15.36-.22.3-.16.43-.11.55.2.04.09.05.19.07.29l1.57 6.46c.08.33.15.66.27.98.13.35.42.51.8.51.38-.01.61-.18.74-.57.04-.13.07-.27.1-.41l1.17-4.89c.06-.25.15-.44.37-.58.39-.25.38-.26.21-.69-.16-.41-.02-.65.43-.69.1-.01.2.01.3 0 .27-.02.4-.19.37-.44-.02-.17-.1-.34-.17-.5-.07-.14-.17-.27-.24-.41-.13-.27-.09-.62.09-.72.25-.13.5-.12.72.07.12.11.23.23.35.33.37.31.87.37 1.28.1.37-.24.72-.27 1.13-.14.4.12.83-.13.93-.54.05-.2.06-.41.09-.61.02-.14.03-.28.07-.41.06-.21.19-.36.42-.36.26.01.4.17.44.41.03.2.03.4.05.6.02.24.1.47.33.52.38.08.8.16 1.17.1.34-.06.6-.34.73-.73.12-.35.47-.44.91-.28-.09.34-.33.58-.55.82-.16.18-.28.35-.12.58.28.37.13.67-.13.97-.18.21-.42.39-.54.63-.1.21-.15.52-.08.73.1.28.41.17.64.12.29-.06.57-.16.87-.23.23-.05.45-.02.56.23.09.21.03.39-.14.54-.64.55-.83 1.28-.84 2.1 0 .88.47 1.49 1.13 1.99.03.03.11-.01.19-.02.05-.15.11-.29.16-.44.35-.93.87-1.28 1.87-1.25.38.01.76.09 1.13.08s.76-.04 1.11-.16c.56-.2.62-.2.74.39.02.1.03.2.06.29.24.92.82 1.54 1.67 1.9.33.14.68.2 1.06-.06l-.2-.49c-.22-.53-.03-1.15.51-1.36a2.44 2.44 0 0 0 1.53-1.63c.18-.56.52-.68 1.08-.51.44.14.72.42.78.89.02.18 0 .36-.01.53-.04.56.21.78.76.64.44-.11.82-.34 1.08-.71.2-.29.38-.61.55-.92.27-.48.58-.91 1.04-1.22.19-.13.41-.19.62-.04s.23.37.1.58c-.09.15-.16.32.01.42.14.07.33.06.49.05.09-.01.17-.1.26-.14.34-.18.35-.17.66.23-.05.07-.11.15-.16.23-.3.46-.13.82.42.85.2.01.4-.04.6-.05.34-.02.63.09.8.42.33.64.68 1.27.98 1.92.29.63.02 1.35-.6 1.68-.3.16-.62.26-.94.37-1.13.39-2.32.36-3.49.44l-8.72.58c-1.22.08-2.43.24-3.64.25l-19.11.02c-.39 0-.78.05-1.13.2-.19.08-.35.22-.33.55.17.04.35.12.54.13.46.04.92.06 1.38.07l10.18.2 12.22.15c.2 0 .39-.01.59-.02l5.91-.57 5.76-.68c.14-.02.28-.04.41-.07 1.41-.32 2.74-1.72 2.84-3.16.18-2.56-1.98-5.29-4.39-5.73-.76-.14-1.52-.34-2.2-.72-.32-.18-.73-.24-1.07-.43-.21-.11-.43-.26-.38-.55.06-.3.29-.41.58-.41l1.08-.01a.96.96 0 0 0 .84-.38c.07-.09.14-.21.24-.27.52-.3.79-.75.93-1.33.12-.5.44-.82 1-.89.61-.08 1.21-.24 1.82-.36 1-.2 1.91-.61 2.63-1.34.32-.32.58-.71.8-1.1.16-.29.02-.61-.22-.72-.28-.13-.5-.03-.67.21-.24.34-.54.58-.97.64-.81.12-1.41-.54-1.15-1.34a1.61 1.61 0 0 1 .37-.56c.38-.36.79-.7 1.21-1.03.55-.43.97-.94 1.13-1.64.09-.39.05-.77-.21-1.08-.11-.13-.33-.25-.49-.24-.24.02-.24.27-.24.48 0 .04.02.08.02.12.05.66-.15.97-.8 1.12-.83.19-1.66.21-2.48-.09-.79-.29-1.15-.87-1.05-1.71.06-.55.35-.84 1.04-.87a4.4 4.4 0 0 0 1.6-.37c.53-.25 1.33-.21 1.74-.74.43-.54.89-1.1 1.16-1.72.42-.97.55-2.04.61-3.1.15-2.68-.51-5.24-1.37-7.73-.48-1.44-1.18-2.82-1.76-4.24zM2.67 83.87c-.23-.42.1-.63.3-.89.41.29.31.59-.3.89zm34.65-15.81c.26-1.01.75-1.92 1.32-2.79.6-.9 1.16-1.81 1.73-2.72.67-1.07 1.01-2.25 1.02-3.51 0-.37-.09-.74-.15-1.11-.03-.19-.07-.37-.12-.6.46-.04.62.18.74.44.49.99.5 2 .13 3.02-.37 1.01-.84 1.97-1.46 2.87-.98 1.43-1.87 2.92-2.55 4.52-.12.29-.21.6-.35.89-.05.1-.19.15-.29.22-.06-.11-.18-.23-.17-.34.02-.3.07-.6.15-.89zm-.4 2.05c.01-.1.19-.28.23-.26.13.05.24.17.42.31-.17.18-.28.39-.38.39-.23 0-.29-.24-.27-.44zm-.01.79c.41.27.56.66.4.96-.04.07-.16.17-.22.15-.11-.04-.27-.12-.3-.22-.08-.28-.06-.57.12-.89zm-1 15.02c.15-.03.32-.02.48-.01.34.02.68.07 1.01.08.27.01.54-.02.63-.33.08-.28.05-.56-.2-.76-.16-.12-.33-.22-.48-.35-.39-.35-.34-.71.13-.93.75-.35 1.61-.18 2.19.44.83.88 1.31 1.94 1.64 3.08.38 1.33.58 2.69.6 4.3-.06.4-.12 1.04-.27 1.66-.12.52-.31.66-.65.66-.36 0-.71-.25-.83-.65-.13-.44-.22-.89-.31-1.34-.26-1.33-.88-2.47-1.87-3.4-.63-.59-1.27-1.15-1.91-1.73-.1-.09-.22-.18-.31-.28-.16-.21-.1-.39.15-.44zM20.48 61.96c-.19-.12-.36-.28-.61-.47.17-.12.23-.2.29-.21.96-.18 1.86-.06 2.65.57.24.19.35.58.24.86-.09.23-.31.37-.58.29-.25-.07-.49-.17-.71-.29-.43-.24-.86-.49-1.28-.75zm-2.36 7.47c.22.01.44.05.65.08.97.14 1.84-.08 2.68-.61.77-.49 1.61-.88 2.42-1.3.24-.13.47-.24.43-.57-.03-.31-.24-.43-.5-.52-.51-.18-1.01-.38-1.51-.57-.11-.04-.22-.1-.32-.16-.22-.16-.41-.34-.32-.65.08-.26.4-.45.72-.4a2.42 2.42 0 0 1 .62.22 5.01 5.01 0 0 0 2.55.5c.61-.04 1.01-.34 1.23-.89.32-.81.3-1.59-.24-2.33-.36-.49-.76-.91-1.33-1.16-.77-.33-1.52-.71-2.26-1.09-.71-.36-.8-.58-.74-1.39.04-.46.02-.92.04-1.37.01-.24.05-.48.11-.71.13-.56.37-.8.94-.84a5.63 5.63 0 0 1 1.36.09c.44.08.86.12 1.3-.03a1.2 1.2 0 0 1 .53-.05c.11.01.28.11.31.2.03.1-.04.29-.13.36-.13.11-.32.15-.48.21-.26.09-.55.14-.79.27-.35.19-.37.42-.11.72.14.17.31.31.46.47.44.48.47.71.16 1.3.07.07.14.17.23.24.23.18.4.37.35.7-.03.19.05.36.29.37.22.01.31-.12.36-.32.14-.55.14-.55.74-.55.08 0 .16.01.24 0 .34-.04.47-.2.34-.53-.09-.24-.22-.48-.4-.65-.23-.21-.35-.42-.31-.73.05-.36-.07-.67-.38-.88-.14-.1-.24-.22-.14-.4.11-.2.27-.27.5-.21l2.22.49c.93.21 1.83 0 2.72-.21.17-.04.31-.17.46-.27l.63-.41c.34.45.27.82-.18.96-.49.16-1 .26-1.5.39-.29.07-.59.12-.86.24-.24.11-.42.33-.37.62s.33.37.56.35c.35-.02.7-.12 1.05-.19.33-.06.66-.18.99-.17.5.02.71.32.6.81-.07.33-.25.64-.3.97-.08.59-.1 1.19-.13 1.79-.03.56-.03 1.12-.06 1.67a1.86 1.86 0 0 1-.09.47c-.14.37-.38.51-.75.41-.28-.07-.56-.2-.82-.33-.21-.11-.39-.3-.61-.37-.16-.05-.43-.05-.54.05s-.13.38-.07.54c.12.31.32.59.49.89.07.12.14.24.2.37.12.25.14.51-.05.73-.17.2-.39.16-.61.1-.52-.15-.93-.05-1.23.45-.16.26-.37.49-.55.72.25.35.51.23.76.2.57-.06 1.15-.15 1.72-.17.63-.02.91.34.82.96-.06.38-.25.55-.65.56-.21.01-.42 0-.67 0 .04.63.02 1.17.56 1.56.35.25.48.67.49 1.11l.11 3.77c0 .14.02.3-.04.41-.08.14-.22.31-.36.33-.13.02-.34-.1-.43-.23-.19-.28-.32-.59-.48-.9-.04-.07-.05-.15-.09-.22-.08-.16-.15-.37-.38-.28-.21.08-.17.29-.14.47l.12.59c.08.4.14.8-.31 1.06-.37.21-.95.14-1.34-.21-.51-.46-.86-1.05-1.08-1.7-.11-.32-.18-.66-.6-.88-.09.12-.22.23-.28.37-.13.29-.2.61-.34.89-.21.44-.35.49-.84.38-.37-.08-.59.04-.7.45-.1.36-.17.74-.23 1.11-.06.38-.26.66-.52.92-.13.12-.29.29-.46.12-.09-.09-.11-.29-.08-.42.06-.27.18-.53.27-.79.17-.5.08-.99-.12-1.46-.05-.11-.2-.23-.3-.23-.11 0-.26.12-.3.23a4.52 4.52 0 0 0-.22.8c-.11.69-.42 1.29-.84 1.83-.12.16-.31.25-.47.38-.04-.03-.08-.05-.11-.08.01-.12-.01-.27.05-.37.53-.96.62-2.01.61-3.07-.01-.59.12-1.08.64-1.46.41-.3.37-.65-.02-.99-.11-.09-.21-.19-.31-.28-.1-.1-.19-.2-.34-.36-.24.19-.47.36-.69.55-.4.36-.78.74-1.2 1.08-.3.24-.33.21-.85.1.1-.14.17-.28.27-.38.23-.22.48-.42.72-.63.09-.08.2-.16.24-.26.05-.13.03-.29.04-.44-.15.01-.3-.02-.43.03-.1.04-.17.16-.26.24a4.78 4.78 0 0 1-3.21 1.26c-.21 0-.43-.06-.64-.13-.17-.06-.36-.18-.26-.39.05-.1.24-.18.38-.19.3-.03.6-.02.9-.02 1.07.02 1.87-.48 2.51-1.29a2.13 2.13 0 0 0 .16-.25c.17-.37.08-.52-.32-.55l-1.25-.13c-.38-.04-.68-.23-.92-.51-.08-.09-.09-.23-.16-.42.41.03.74.02 1.07.04zm6.24-6.18c.16-.29.47-.33.81-.08.18.13.33.29.48.44.15.14.3.33.16.51-.08.12-.29.14-.41.2-.29-.08-.53-.11-.74-.2-.4-.17-.51-.51-.3-.87zm-4.09 12.5c-.3.2-.62.23-.96.05-.04-.3.07-.54.35-.61.19-.04.43-.01.61.08.22.12.21.34 0 .48zm-2.26.05c-.11.13-.17.29-.28.33a18.09 18.09 0 0 1-1.62.54c-.09.02-.27-.1-.32-.2s0-.27.06-.37c.05-.09.18-.16.28-.2.37-.14.74-.28 1.12-.38.16-.04.35-.02.52.02.1.03.15.16.24.26zm-3.96-20.51c.34.02.61.29.6.61-.01.39-.53.92-.89.9-.34-.02-.56-.34-.54-.79.02-.44.37-.74.83-.72zm-4.83 1.09c.29-.05.6 0 .89-.04.16-.02.4-.09.44-.21.06-.15.02-.39-.06-.55-.07-.15-.25-.25-.37-.38-.33-.35-.41-.83-.22-1.21.17-.34.52-.5 1.02-.45.97.09 1.61.99 1.33 1.99-.13.47-.05.82.12 1.25.23.57.34 1.19.47 1.79l1.85 8.05.44 1.8c.13.48.4.86.87 1.08.07.03.12.1.19.16-.03.09-.05.16-.07.23-.14.46-.08.67.31.91.2.12.43.19.66.28.14.06.29.1.54.18-.13.16-.19.32-.3.38-.33.18-.69.2-1.04.06s-.69-.31-1.04-.46c-.62-.26-1.05-.1-1.19.55-.2.92-.58 1.08-1.52 1.05-.43-.01-.87-.11-1.3-.2-.13-.03-.24-.14-.36-.22.01-.05.01-.09.02-.14.14-.04.27-.09.41-.11.18-.02.36 0 .54-.01.24-.02.43-.13.46-.39.03-.28-.19-.38-.41-.42-.18-.03-.36-.02-.54-.04-.14-.01-.28-.02-.41-.07-.21-.08-.35-.25-.25-.47.05-.11.22-.21.35-.23.25-.03.52 0 .78-.01.4-.02.56-.13.58-.38.02-.27-.16-.46-.52-.55-.12-.03-.24-.03-.35-.07-.1-.04-.19-.12-.38-.25.21-.1.33-.18.47-.21.21-.05.39-.11.41-.36.02-.23-.11-.37-.3-.47-.1-.05-.2-.11-.31-.18.11-.29.33-.22.51-.23.17-.01.35 0 .5 0 .16-.26.02-.38-.13-.48l-1-.66c-.1-.07-.19-.18-.33-.32l.43-.18c.35-.15.49-.4.27-.71-.37-.51-.29-1.14-.56-1.68-.17-.35-.03-.57.3-.81.16-.12.34-.22.46-.37.16-.19.2-.43.09-.67s-.32-.3-.55-.27a6.18 6.18 0 0 0-.93.2c-.23.07-.43.21-.66.27-.42.11-.7-.09-.76-.52-.02-.2-.02-.4-.02-.6.01-.5.15-.62.66-.6.24.01.48.06.72.05a.86.86 0 0 0 .44-.15c.24-.17.22-.36-.01-.59-.5-.5-.5-.58-.04-1.13.09-.1.23-.23.22-.34-.03-.2-.1-.44-.23-.58-.18-.19-.41-.07-.58.09-.1.09-.19.2-.29.3-.39.41-.84.37-1.13-.1-.25-.42-.23-.89-.06-1.33.06-.11.3-.24.47-.27zm1.02 20.09c.03-.57.29-.93.82-1.12 1.14-.41 2.45.42 2.55 1.62.04.46-.08.65-.53.8-.51.17-1.01.36-1.52.51a1.66 1.66 0 0 1-.7.07c-.38-.05-.61-.36-.63-.75-.01-.2 0-.4 0-.6 0-.17 0-.35.01-.53zM8.81 66.45L8.8 77.17c0 .18.01.36-.01.54-.04.46-.31.68-.75.64-.18-.02-.36-.05-.53-.11-.74-.23-.88-.42-.88-1.2v-7.07h-.06v-6.89c0-.16-.01-.32 0-.48.04-.44.3-.59.69-.38.39.2.76.43 1.15.63.3.15.42.37.41.72-.02.97-.01 1.92-.01 2.88zm-.62-44.08H6.43v-2.84h1.76v2.84zm.01.89v2.13H6.44v-2.13H8.2zm-.07 3.53l.05 3.51H6.42v-3.51h1.71zm-1.71 4.74h1.77v1.79c-.2.01-.36.02-.52.02H6.41c-.03-.61-.04-1.19.01-1.81zm-.03 3.29h1.8v5.45H6.41c-.04-1.81-.01-3.62-.02-5.45zm.84 6.39c.58 0 1.07.48 1.07 1.05a1.12 1.12 0 0 1-1.11 1.09c-.57-.02-1.04-.52-1.03-1.1a1.06 1.06 0 0 1 1.07-1.04zM7.2 56c-.59-.05-.8-.28-.79-.94.05-.31-.02-.73.37-.97.37-.22.77-.24 1.15-.08.27.12.52.3.75.49.28.23.32.41.1.67-.42.48-.88.89-1.58.83zm1.27 3.07c.38.42.24.8-.3.99-.63.22-1.37-.16-1.55-.81-.04-.15-.06-.31-.08-.38.01-.66.43-.92.92-.61.37.23.73.49 1.01.81zM6.39 44.36h1.8v7.43c-.6 0-1.26.13-1.78.16l-.02-7.59zm-.12 34.87c.38-.05.78-.1 1.1.22-.29.53-.95.6-1.24.15-.11-.17-.03-.34.14-.37zm2.36-60.96c-.76.04-1.52.04-2.27.01-.52-.02-.89-.56-.87-1.17.02-.55.38-.98.9-1.01.38-.03.76-.01 1.14-.01.34 0 .68.01 1.02 0 .42-.02.69.21.83.56a1.95 1.95 0 0 1 .11.76c-.04.58-.27.83-.86.86zm.61 8.78l7.44 6.21-7.44 6.19v-12.4zm1.59 19.85a.39.39 0 0 1-.39.39h-.39a.39.39 0 0 1-.39-.39v-2.1a.39.39 0 0 1 .39-.39h.39a.39.39 0 0 1 .39.39v2.1zm1.73 0a.39.39 0 0 1-.39.39h-.39a.39.39 0 0 1-.39-.39v-2.1a.39.39 0 0 1 .39-.39h.39a.39.39 0 0 1 .39.39v2.1zm1.66 0a.39.39 0 0 1-.39.39h-.39a.39.39 0 0 1-.39-.39v-2.1a.39.39 0 0 1 .39-.39h.39a.39.39 0 0 1 .39.39v2.1zm1.66 0a.39.39 0 0 1-.39.39h-.39a.39.39 0 0 1-.39-.39v-2.1a.39.39 0 0 1 .39-.39h.39a.39.39 0 0 1 .39.39v2.1zm-.9-3.98l6.63-5.54 6.61 5.54H14.98zm2.56 3.98a.39.39 0 0 1-.39.39h-.39a.39.39 0 0 1-.39-.39v-2.1a.39.39 0 0 1 .39-.39h.39a.39.39 0 0 1 .39.39v2.1zm1.66 0a.39.39 0 0 1-.39.39h-.39a.39.39 0 0 1-.39-.39v-2.1a.39.39 0 0 1 .39-.39h.39a.39.39 0 0 1 .39.39v2.1zm1.66 0a.39.39 0 0 1-.39.39h-.39a.39.39 0 0 1-.39-.39v-2.1a.39.39 0 0 1 .39-.39h.39a.39.39 0 0 1 .39.39v2.1zm1.66 0a.39.39 0 0 1-.39.39h-.39a.39.39 0 0 1-.39-.39v-2.1a.39.39 0 0 1 .39-.39h.39a.39.39 0 0 1 .39.39v2.1zm1.66 0a.39.39 0 0 1-.39.39h-.39a.39.39 0 0 1-.39-.39v-2.1a.39.39 0 0 1 .39-.39h.39a.39.39 0 0 1 .39.39v2.1zm1.66 0a.39.39 0 0 1-.39.39h-.39a.39.39 0 0 1-.39-.39v-2.1a.39.39 0 0 1 .39-.39h.39a.39.39 0 0 1 .39.39v2.1zm1.66 0a.39.39 0 0 1-.39.39h-.39a.39.39 0 0 1-.39-.39v-2.1a.39.39 0 0 1 .39-.39h.39a.39.39 0 0 1 .39.39v2.1zm1.66 0a.39.39 0 0 1-.39.39h-.39a.39.39 0 0 1-.39-.39v-2.1a.39.39 0 0 1 .39-.39h.39a.39.39 0 0 1 .39.39v2.1zm1.66 0a.39.39 0 0 1-.39.39h-.39a.39.39 0 0 1-.39-.39v-2.1a.39.39 0 0 1 .39-.39h.39a.39.39 0 0 1 .39.39v2.1zm1.66 0a.39.39 0 0 1-.39.39h-.39a.39.39 0 0 1-.39-.39v-2.1a.39.39 0 0 1 .39-.39h.39a.39.39 0 0 1 .39.39v2.1zm1.67 0a.39.39 0 0 1-.39.39h-.39a.39.39 0 0 1-.39-.39v-2.1a.39.39 0 0 1 .39-.39h.39a.39.39 0 0 1 .39.39v2.1zm-.43-7.68l-7.16-5.97 7.16-5.98v11.95zm3.98 7.92c-.04.09-.16.16-.31.16H35a.39.39 0 0 1-.39-.39V45.2v-.15-.25c0-.05.03-.09.07-.11.02-.01.04-.01.06-.01.03 0 .05.01.07.02h0c.68.47 2.81 2.19 2.82 2.2.08.07.1.16.07.24zm.95-.78c0 .13-.09.19-.14.22-.1.05-.27.07-.44-.03l-2.91-2.24c-.06-.04-.03-.13.04-.13l1.08-.02h1.83c.29 0 .54.15.54.33v1.87zm.08-2.88c0 .14-.11.26-.26.26h-3.6c-.14 0-.26-.11-.26-.26v-.66c0-.14.11-.26.26-.26h3.6c.14 0 .26.11.26.26v.66zm0-1.66c0 .14-.11.26-.26.26h-3.6c-.14 0-.26-.11-.26-.26v-.66c0-.14.11-.26.26-.26h3.6c.14 0 .26.11.26.26v.66zm0-1.66c0 .14-.11.26-.26.26h-3.6c-.14 0-.26-.11-.26-.26v-.66c0-.14.11-.26.26-.26h3.6c.14 0 .26.11.26.26v.66zm0-1.66c0 .14-.11.26-.26.26h-3.6c-.14 0-.26-.11-.26-.26v-.66c0-.14.11-.26.26-.26h3.6c.14 0 .26.11.26.26v.66zm0-1.66c0 .14-.11.26-.26.26h-3.6c-.14 0-.26-.11-.26-.26v-.66c0-.14.11-.26.26-.26h3.6c.14 0 .26.11.26.26v.66zm0-1.66c0 .14-.11.26-.26.26h-3.6c-.14 0-.26-.11-.26-.26v-.66c0-.14.11-.26.26-.26h3.6c.14 0 .26.11.26.26v.66zm0-1.66c0 .14-.11.26-.26.26h-3.6c-.14 0-.26-.11-.26-.26v-.66c0-.14.11-.26.26-.26h3.6c.14 0 .26.11.26.26v.66zm0-1.66c0 .14-.11.26-.26.26h-3.6c-.14 0-.26-.11-.26-.26v-.66c0-.14.11-.26.26-.26h3.6c.14 0 .26.11.26.26v.66zm0-1.66c0 .14-.11.26-.26.26h-3.6c-.14 0-.26-.11-.26-.26v-.66c0-.14.11-.26.26-.26h3.6c.14 0 .26.11.26.26v.66zm0-1.66c0 .14-.11.26-.26.26h-3.6c-.14 0-.26-.11-.26-.26v-.66c0-.14.11-.26.26-.26h3.6c.14 0 .26.11.26.26v.66zm0-1.66c0 .14-.11.26-.26.26h-3.6c-.14 0-.26-.11-.26-.26v-.66c0-.14.11-.26.26-.26h3.6c.14 0 .26.11.26.26v.66zm0-1.66c0 .14-.11.26-.26.26h-3.6c-.14 0-.26-.11-.26-.26v-.66c0-.14.11-.26.26-.26h3.6c.14 0 .26.11.26.26v.66zm0-2.39v.66c0 .14-.11.26-.26.26h-3.6c-.14 0-.26-.11-.26-.26v-.66c0-.14.11-.26.26-.26h3.6c.14 0 .26.12.26.26zm-.26-3.24c.05.03.14.09.14.22v1.87c0 .18-.25.33-.54.33h-1.83a63.94 63.94 0 0 1-1.1-.02c-.07 0-.1-.09-.04-.13l2.92-2.24c.17-.1.35-.08.45-.03zm-3.9 1.54v-1.86a.39.39 0 0 1 .39-.39h2.4c.14 0 .26.06.3.16.03.08.01.16-.06.24-.02.02-2.15 1.74-2.83 2.21-.04.03-.09.03-.13.01s-.07-.07-.07-.11c-.01-.06 0-.17 0-.26zm-1.6-1.86a.39.39 0 0 1 .39-.39h.39a.39.39 0 0 1 .39.39v2.1a.39.39 0 0 1-.39.39h-.39a.39.39 0 0 1-.39-.39v-2.1zm-1.66 0a.39.39 0 0 1 .39-.39h.39a.39.39 0 0 1 .39.39v2.1a.39.39 0 0 1-.39.39h-.39a.39.39 0 0 1-.39-.39v-2.1zm-1.66 0a.39.39 0 0 1 .39-.39h.39a.39.39 0 0 1 .39.39v2.1a.39.39 0 0 1-.39.39h-.39a.39.39 0 0 1-.39-.39v-2.1zm-1.66 0a.39.39 0 0 1 .39-.39h.39a.39.39 0 0 1 .39.39v2.1a.39.39 0 0 1-.39.39h-.39a.39.39 0 0 1-.39-.39v-2.1zm-1.66 0a.39.39 0 0 1 .39-.39h.39a.39.39 0 0 1 .39.39v2.1a.39.39 0 0 1-.39.39h-.39a.39.39 0 0 1-.39-.39v-2.1zm-1.66 0a.39.39 0 0 1 .39-.39h.39a.39.39 0 0 1 .39.39v2.1a.39.39 0 0 1-.39.39h-.39a.39.39 0 0 1-.39-.39v-2.1zm-1.66 0a.39.39 0 0 1 .39-.39h.39a.39.39 0 0 1 .39.39v2.1a.39.39 0 0 1-.39.39h-.39a.39.39 0 0 1-.39-.39v-2.1zm-1.66 0a.39.39 0 0 1 .39-.39h.39a.39.39 0 0 1 .39.39v2.1a.39.39 0 0 1-.39.39h-.39a.39.39 0 0 1-.39-.39v-2.1zm-1.66 0a.39.39 0 0 1 .39-.39h.39a.39.39 0 0 1 .39.39v2.1a.39.39 0 0 1-.39.39h-.39a.39.39 0 0 1-.39-.39v-2.1zm-1.66 0a.39.39 0 0 1 .39-.39h.39a.39.39 0 0 1 .39.39v2.1a.39.39 0 0 1-.39.39h-.39a.39.39 0 0 1-.39-.39v-2.1zm-1.66 0a.39.39 0 0 1 .39-.39h.39a.39.39 0 0 1 .39.39v2.1a.39.39 0 0 1-.39.39h-.39a.39.39 0 0 1-.39-.39v-2.1zm-1.66 0a.39.39 0 0 1 .39-.39h.39a.39.39 0 0 1 .39.39v2.1a.39.39 0 0 1-.39.39h-.39a.39.39 0 0 1-.39-.39v-2.1zm14.16 3.74l-7.25 6.12-7.29-6.12h14.54zm-15.82-3.74a.39.39 0 0 1 .39-.39h.39a.39.39 0 0 1 .39.39v2.1a.39.39 0 0 1-.39.39h-.39a.39.39 0 0 1-.39-.39v-2.1zm-1.66 0a.39.39 0 0 1 .39-.39h.39a.39.39 0 0 1 .39.39v2.1a.39.39 0 0 1-.39.39h-.39a.39.39 0 0 1-.39-.39v-2.1zm-1.73 0a.39.39 0 0 1 .39-.39h.39a.39.39 0 0 1 .39.39v2.1a.39.39 0 0 1-.39.39h-.39a.39.39 0 0 1-.39-.39v-2.1zm2.33 3.74l8.46 7.09 1.17.98 1.17-.98 8.42-7.09h2.51v2.28l-8.33 6.99-1.17.98 1.17.98 8.33 6.94v1.75h-3.16l-7.78-6.52-1.17-.98-1.17.98-7.8 6.52h-3.4V41.4l8.61-7.17 1.17-.98-1.17-.98-8.61-7.2V23h2.75zm-7.35-12l2.81-7.73c.06-.16.29-.16.35 0l2.61 7.73c.04.12-.05.24-.18.24H4.82c-.14.01-.23-.12-.18-.24zm.09 1.62c-.08-.09-.01-.24.11-.24l5.33-.04c.13 0 .19.15.11.24-.32.37-.93 1.05-1.2 1.28-.13.13-.34.23-.52.24-.76.03-1.51.02-2.27.01-.13 0-.3-.04-.38-.12-.3-.31-.88-1.01-1.18-1.37zM4.5 81.86c-.05-.02-.1-.06-.15-.09-.38-.24-.54-.55-.42-.83.12-.31.58-.45.99-.32.08.03.15.06.22.1.55.34 1.12.34 1.72.15l10.18-3.1c.76-.23 1.54-.42 2.32-.58.41-.08.88-.2 1.18.27-.21.62-.3.69-.89.68-.2 0-.4-.02-.6 0-.5.06-.7.39-.5.85.21.49.61.77 1.12.92.11.03.24.05.35.06 1.64.14 3.23-.03 4.71-.79.33-.17.62-.44.88-.7.47-.48.94-.94 1.64-1.02.25-.03.51.02.76.06.27.05.45.25.43.5-.02.21-.12.48-.28.61-.21.16-.5.27-.76.3-.97.11-1.57.74-2.09 1.46-.18.25-.21.63-.23.96-.03.35.05.72.03 1.07-.01.13-.13.33-.23.36-.14.03-.39-.03-.46-.14-.14-.2-.2-.46-.26-.71-.06-.24.03-.56-.35-.59-.26-.02-.41.18-.47.58-.01.1-.02.2-.04.3-.03.17-.06.42-.28.38-.17-.02-.35-.17-.45-.31-.08-.11-.06-.31-.1-.46-.08-.3-.32-.45-.52-.27-.64.59-1.35.39-2.04.23-.5-.12-.87-.17-1.16.36-.15.28-.46.31-.73.11-.46-.34-.88-.37-1.38-.06-.39.24-.53.17-.87-.19-.33-.35-.86-.41-1.24-.13-.35.26-.42.67-.2 1.13.48.97.24 1.4-.83 1.49-.32.03-.64.04-.95-.02-.5-.09-.69-.47-.49-.94.11-.25.28-.48.42-.72.21-.36.07-.66-.34-.74-.08-.02-.16-.01-.24-.01-.34 0-.65-.05-.96-.26-.39-.26-.78-.1-.85.37-.06.39-.08.8 0 1.19.18.9-.45 1.42-1.09 1.61-.81.25-1.69-.09-2.03-.75-.14-.27-.16-.55.09-.76.19-.17.41-.31.62-.45.26-.18.54-.34.78-.54.16-.14.32-.38.14-.57-.1-.1-.36-.09-.54-.06-.17.03-.32.15-.47.24a2.09 2.09 0 0 1-1.06.35c-.23.01-.46.09-.68.19-.24.11-.43.09-.57-.13-.19-.31-.46-.51-.78-.64zm23.53 10.15a6.4 6.4 0 0 1-1.35-1.35c-.38-.51-.83-.96-1.26-1.43-.11-.11-.24-.22-.39-.28-.94-.35-1.93-.55-2.83-.03-1.37.79-2.56 1.81-3 3.41-.17.62-.2 1.29-.3 1.94.02 0 .05.01.07.01 0 .36.02.72-.01 1.08-.04.53-.37.74-.87.56-.2-.07-.4-.18-.58-.3-.62-.43-1.28-.61-2.03-.5-.69.1-1.3-.08-1.76-.66-.22-.28-.3-.59-.33-.94-.02-.29-.07-.6-.17-.87-.28-.76-.79-1.21-1.66-1.2-.52.01-.54-.02-.61-.52l-.51-4.33c-.07-.72.32-1.18.94-1.19.46-.01.75.26.66.71-.07.34-.29.64-.43.96-.07.15-.12.31-.18.47.18.07.35.19.53.19.76.02 1.35-.37 1.78-.94s.83-1.17 1.17-1.8c.36-.66.81-1.07 1.59-1.18 1.52-.22 3.02-.18 4.54-.03.8.08 1.4.53 1.84 1.2.66 1 1.56 1.69 2.71 2.04.59.18 1.2.31 1.7.71 1.02.82 1.9 1.77 2.61 2.86.23.35.38.75.33 1.19-.06.53-.28.75-.82.74-.52-.01-.98-.22-1.38-.52zm.51 3.43c-.02.21-.17.35-.39.34-.06 0-.17-.16-.16-.19.09-.16.2-.29.36-.5.1.17.2.26.19.35zm-2.57-2.49c-.07-.18-.14-.37-.18-.56-.03-.17-.07-.4.16-.44.1-.02.26.13.35.24.66.86.87 1.85.87 2.91v.6h.05l-.16 1.6a.8.8 0 0 1-.11.34c-.15.27-.41.39-.64.31-.29-.11-.39-.33-.35-.62.03-.2.07-.39.14-.58.42-1.28.35-2.55-.13-3.8zm-2.22 6.13c.08.23.4.44.18.69-.14.16-.42.18-.62.3-.12.07-.25.23-.25.35s.14.28.26.34c.86.41.87.42.27 1.16-.58.72-.82 1.49-.47 2.39.02.06.04.11.05.17.04.21.16.45-.11.58a.53.53 0 0 1-.7-.16c-.43-.6-.86-1.22-.66-2.03a.5.5 0 0 0 .02-.12c.01-.25.12-.56-.15-.72-.31-.18-.44.15-.62.31-.36.32-.76.43-1.22.28-.51-.17-.66-.66-.36-1.1.07-.1.18-.17.22-.28.03-.1.03-.26-.03-.32s-.21-.03-.32-.03c-.03 0-.07.04-.1.06-.41.46-.87.39-1.36.16-.26-.12-.47-.28-.58-.56-.15-.37-.22-.39-.58-.26-.11.04-.22.1-.33.15-.29.11-.55.04-.78-.16-.26-.22-.29-.38-.12-.68.12-.21.27-.39.37-.61a.32.32 0 0 0-.07-.31c-.07-.05-.25-.04-.32.02-.13.11-.24.26-.33.41-.15.24-.25.5-.42.73-.45.61-1.41.69-1.96.17-.23-.22-.22-.57.06-.84.2-.19.43-.36.63-.55.1-.09.2-.2.26-.32a.45.45 0 0 0-.46-.67c-.22.01-.44.05-.65.08-.22.04-.4 0-.52-.2-.11-.19-.08-.37.06-.55.43-.59.41-.75-.06-1.27-.12-.13-.24-.27-.34-.42-.1-.17-.12-.38.06-.48.13-.08.33-.1.49-.09.1.01.21.11.29.19.94.89 2.1 1.26 3.34 1.48.65.11 1.3.21 1.89.54.47.25.88.57 1.14 1.03.28.49.71.65 1.23.73.43.06.84.21 1.26.32.12.03.23.08.34.1.23.05.45.03.58-.19.13-.23-.04-.38-.19-.5-.38-.31-.77-.63-1.17-.92-.7-.5-.93-1.19-.93-2.02 0-1.07.15-2.11.49-3.12.3-.9.85-1.61 1.61-2.18.48-.36 1.04-.39 1.6-.36.32.02.38.17.37.74-.01.48.18.89.45 1.27.97 1.37 1.11 2.92.96 4.52-.06.65-.24 1.29-.36 1.94-.05.28-.24.34-.48.35-.2.01-.4-.02-.6.01-.3.02-.37.17-.26.45zM7.63 86.19c-.02.33-.08.55-.33.59-.2.03-.24-.15-.24-.32.02-.31.19-.57.36-.51.1.03.17.19.21.24zM5.75 99.82a2.84 2.84 0 0 1-.77-.08c-.46-.11-.6-.32-.5-.78a13.96 13.96 0 0 1 .41-1.44c.67-1.98 1.03-4.01 1.18-6.09.04-.56.1-1.11.21-1.66.14-.71.49-1.02 1.22-1.08.3-.03.42-.16.45-.44.02-.17.05-.35.12-.51.13-.28.39-.37.65-.26.25.1.37.35.22.64-.18.34-.13.59.11.87.12.15.2.34.29.49-.03.07-.04.12-.06.14-.61.41-.61.71.01 1.15.38.27.38.43.01.72-.06.05-.13.09-.19.14-.29.28-.26.55.1.77.41.25.43.38.11.71-.35.36-.29.6.18.75.23.07.6-.04.63.31.03.41-.4.28-.62.41-.07.04-.14.08-.2.13-.32.25-.34.75.14.88.24.06.53.06.67.48-.2.09-.37.17-.55.24-.19.07-.34.2-.28.4.05.17.18.34.31.46.09.08.28.04.4.11s.29.21.28.31c-.01.12-.16.25-.29.33-.11.07-.28.04-.4.09-.34.13-.39.45-.08.62.23.13.52.17.79.23.25.06.52.06.76.14.1.03.23.2.23.3s-.13.24-.24.29c-.16.08-.34.12-.52.12l-4.78.11zm4.52 1.38l.09-.06c.09-.06.18-.12.27-.14.07-.01.16.12.3.24-.18.09-.29.2-.39.19-.05-.01-.1-.04-.14-.09-.04-.04-.08-.09-.13-.14h0 0zm-1.12 1.29a1 1 0 0 1-1.03 1.02c-.77.01-1.12-.32-1.12-1.06 0-.64.4-1.05 1.03-1.06.72-.01 1.14.4 1.12 1.1zm1.11 3.9c-.27.04-.55.07-.82.14a.5.5 0 0 0-.39.54c.01.25.16.39.39.47l.68.24c-.01.05-.01.1-.02.14-.19.03-.37.05-.56.08-.24.04-.41.16-.46.4-.05.27.08.46.31.59.18.1.46.06.52.41-.16.05-.32.09-.48.15-.25.1-.49.22-.5.53 0 .3.24.39.47.47.04.01.07.03.11.04.19.06.41.11.39.37-.01.25-.23.23-.4.27a1.15 1.15 0 0 0-.28.09c-.48.23-.52.71-.08 1.03.17.12.34.25.61.45-.26.14-.41.25-.58.31-.13.05-.29 0-.41.06-.11.05-.24.18-.25.29-.02.11.07.27.16.35.1.09.26.1.37.18.08.06.18.18.18.27-.01.09-.12.18-.2.27-.02.02-.08.02-.11.03-.59.23-.61.35-.12.76.27.23.26.43-.06.65-.26.18-.33.35-.16.64.27.45.19.61-.4.94-.07-.16-.16-.31-.2-.47l-1.66-7.04-1.05-4.36c-.21-.87-.19-.91.73-.92l3.11-.04c.2 0 .4.06.61.09v.16c-.06.04-.12.1-.18.12-.21.08-.35.22-.32.45.03.27.27.32.49.36.14.03.28.01.42.04.17.03.33.09.48.13-.01.29-.19.29-.34.32zm4.44 3.75c-.18.05-.28-.1-.25-.35 0-.02 0-.04.01-.06.06-.18.05-.43.31-.43.08 0 .21.16.24.26.05.24-.13.53-.31.58zm3.3-2.29a2.35 2.35 0 0 1-.78-.28c-1.21-.76-2.53-1.16-3.96-1.17a2.88 2.88 0 0 1-.59-.06c-.46-.12-.58-.41-.32-.8.14-.22.32-.41.48-.61.09-.11.19-.21.26-.33.32-.53.08-1.01-.54-1.05l-2.15-.09c-.5-.03-.64-.18-.64-.67 0-.56.32-.84.88-.76.33.05.67.2.99.18.57-.03 1.15-.13 1.71-.26.76-.18 1.51-.37 2.3-.33.47.03.9.14 1.3.4.32.2.66.37.99.55.19.11.38.21.56.35a.43.43 0 0 1 .13.54c-.24.55-1.06.84-1.6.55-.41-.22-.66-.22-.87 0-.25.25-.28.65-.01.98.18.22.43.42.7.52.44.17.92.25 1.38.38.31.09.59 0 .86-.16.26-.15.51-.32.78-.44.59-.27 1.15-.22 1.68.2.45.36.93.69 1.4 1.03.1.07.21.14.32.16.75.1 1.5.24 2.25.25.32 0 .68-.23.95-.44.3-.23.19-.56-.19-.65-.27-.06-.55-.08-.83-.11-.88-.11-1.46-.75-1.51-1.65-.07-1.47.03-1.72 1.11-2.73.36-.34.73-.67 1.11-1 .33-.29.74-.38 1.08-.4.69 0 1.18.38 1.36.97l.23.87c.35 1.48 1.32 2.41 2.64 3.06.14.07.3.13.42.22.27.2.3.47.07.71-.1.1-.21.19-.33.26-1.45.76-2.63 1.87-3.88 2.9l-.87.73c-.66.55-.83.56-1.59.11-.36-.21-.74-.39-1.09-.62-.77-.48-1.66-.54-2.52-.68l-3.67-.63zm6.38 3.59c-.4.39-.82.24-1.09-.42.35-.18.68-.21 1.01-.08.27.11.3.29.08.5zm-3.29 3.96c-.04-.06-.18-.17-.16-.21.11-.29.25-.57.41-.83.04-.06.23-.08.32-.04s.16.17.18.27c.03.26-.43.78-.75.81zm.98-3.7c-.22.17-.93.11-1.22-.06.26-.52.61-.71 1.13-.57.11.03.28.16.28.24 0 .13-.08.31-.19.39zm15.94-4.16c-.11.27-.32.46-.61.51-.1.02-.2.01-.3.01-.62.04-.69.12-.54.73.1.42.01.64-.33.68-.12.02-.28-.04-.38-.1-.23-.15-.43-.12-.56.1-.24.4-.59.47-1.03.43-.53-.05-.66.09-.77.6-.06.29-.19.56-.31.83-.16.36-.09.56.29.68.13.04.28.03.41.07.26.09.54.17.76.33.44.32.42.85-.04 1.15a6.13 6.13 0 0 1-1.11.57c-.39.15-.76.04-1.02-.29-.22-.28-.41-.59-.62-.88-.36-.52-.64-.59-1.22-.33-.22.1-.44.18-.66.28-.34.15-.43.32-.3.66.07.18.19.35.3.52.37.61.24 1.29-.35 1.67-.51.33-1.07.41-1.67.3-.67-.12-1.16-.9-.74-1.5.16-.23.21-.55.28-.84.05-.22-.07-.37-.28-.47-.2-.1-.4-.11-.55.05-.17.19-.3.42-.42.64-.2.34-.35.72-.59 1.03-.53.69-1.02.83-1.84.59-.77-.22-1.21-.73-1.34-1.52-.02-.1-.01-.2-.02-.24 0-.67.03-.7.6-.91.62-.22 1.26-.4 1.84-.7s1.13-.67 1.64-1.08l4.73-3.95c.33-.28.69-.51 1.11-.54.37-.03.76-.03 1.11.08.65.19 1.11-.01 1.52-.51.67-.83 1.68-.94 2.51-.3.47.33.71 1.12.5 1.65zm6.31-14.08c-.13 1.36-.94 2.24-2.07 2.89-.1.06-.22.11-.33.11-.72-.02-1.44 0-2.14-.1-.72-.1-1.11-.69-1.41-1.28-.21-.42-.34-.89-.45-1.36-.16-.69-.37-1.35-.88-1.87-.18-.18-.4-.32-.62-.45-.06-.04-.24-.01-.26.04-.04.09-.03.22 0 .32.02.07.1.12.16.17.63.54.87 1.27 1.01 2.05.08.46.03.55-.4.81-.45.27-.5.5-.21.92.17.24.37.47.54.72.31.45.22.72-.3.88-.37.11-.44.25-.27.6.13.27.29.52.44.78.21.36.46.71.62 1.09.4.93 1.13 1.47 2.03 1.83.28.11.56.21.84.31.13.05.26.09.38.16.18.11.33.25.26.49s-.24.38-.49.34c-.35-.06-.71-.13-1.04-.25-.83-.32-1.55-.82-2.21-1.4-.19-.17-.4-.31-.63-.49-.3.31-.31.56-.13.82.45.67.93 1.29 1.69 1.64.75.34 1.38.86 1.98 1.43.36.34.79.61 1.2.88.42.28.56.47.47.74s-.34.35-.83.27c-.16-.03-.31-.09-.47-.1-.45-.03-.91-.09-1.36-.05-.48.04-.83-.07-1.06-.49-.15-.26-.3-.52-.41-.8a1.01 1.01 0 0 0-.66-.63c-.27-.1-.53-.27-.76-.45-.19-.15-.33-.15-.53-.02-.52.35-.55.35-1.04-.05-.33-.26-.65-.32-1.05-.22-.48.12-.98.19-1.47.24-.76.07-1.37-.25-1.83-.83-.54-.69-1.02-1.43-1.16-2.33a8.65 8.65 0 0 0-.25-1.23c-.37-1.2-.07-2.33.31-3.46.47-1.38 1.34-2.53 2.24-3.65.45-.55.83-1.11.92-1.84.1-.85-.15-1.58-.77-2.16-.13-.12-.3-.24-.47-.06-.15.15-.14.32-.03.49.03.05.07.1.1.15.02.03.05.06.08.09.17.21.21.44.02.65-.18.19-.4.17-.6.04-.44-.31-.87-.63-1.3-.95-.02-.01-.03-.03-.04-.04-.65-.47-1.03-1.08-1.1-1.9-.05-.54-.19-.59-.7-.38-.43.18-.75-.03-.76-.5-.01-.17 0-.35 0-.61H25.9c-.26-.01-.52 0-.77-.06-.3-.07-.45-.33-.4-.58.05-.28.27-.3.5-.33l2.02-.2c.55-.07 1-.37 1.44-.69.09-.07.18-.16.24-.26.16-.23.2-.49.03-.73-.17-.23-.43-.22-.65-.11-.45.23-.93.19-1.41.21-.33.01-.57-.14-.76-.39-.26-.33-.34-.73-.3-1.13.05-.44.39-.64.78-.72a3.38 3.38 0 0 1 .95-.06c.67.05 1.26-.12 1.81-.49.03-.02.07-.04.1-.06.48-.25.76-.2 1.07.25l2.57 3.68c1.11 1.56 2.16 3.17 3.43 4.6 1.12 1.26 1.74 2.8 2.43 4.31.21.45.38.93.6 1.37.39.76 1.27 1.02 2.04.64.79-.39 1.25-1.3 1.15-2.26-.14-1.35-.25-2.7-.44-4.05-.28-1.93-.97-3.7-2.14-5.27-.5-.68-1.18-.99-2.01-1-.34 0-.68 0-1.02-.01-.31 0-.48-.18-.54-.46s0-.55.26-.67a2.61 2.61 0 0 1 .91-.24c.45-.04.91-.01 1.35-.01.18-.26-.01-.41-.1-.57-.62-1.07-1.19-2.17-1.63-3.33-.41-1.07-.71-2.16-.75-3.31 0-.08-.02-.16-.01-.24.04-.51.33-.66.76-.36.08.05.15.12.21.17.26-.05.28-.23.29-.41.04-.44.05-.88.11-1.31a33.63 33.63 0 0 1 .26-1.71c.17-1 .62-1.89 1.13-2.75.6-.99 1.24-1.95 1.95-2.87.47-.61.73-1.36 1.09-2.05.13-.25.22-.52.38-.74.07-.11.29-.19.41-.16.1.02.19.23.2.37.09.7-.14 1.35-.44 1.96-.37.77-.86 1.47-1.41 2.14-.76.94-1.44 1.96-2.13 2.95-.25.36-.43.78-.37 1.23.05.35-.29.39-.45.61.08.11.13.25.23.32.37.22.41.54.37.93a5.68 5.68 0 0 0 .01 1.01c.02.21.13.39.37.4.24 0 .36-.16.41-.37a1.44 1.44 0 0 0 .05-.41c.07-1.29.87-2.05 1.92-2.6.23-.12.54-.1.82-.12.08 0 .22.09.22.14.01.1-.04.24-.12.3-.08.07-.22.1-.33.11-.44.02-.74.28-1.01.58-.29.31-.3.58.01.88.27.25.25.46.06.73-.13.18-.24.37-.37.54-.93 1.21-1.08 2.6-.92 4.04.2 1.82.75 3.55 1.6 5.17.93 1.77 1.37 3.7 1.93 5.59.6 1.92.62 3.88.43 5.86zM41.15 68.5c.01.35-.58 1.08-.92 1.14-.27.05-.45-.11-.37-.36.14-.44.4-.82.8-1.06.25-.15.48 0 .49.28zM1.37 110.24c-.23-.07-.47.15-.48.41-.01.22.08.39.32.43s.41-.16.42-.57c-.05-.06-.13-.24-.26-.27zm9.75 8.54c-.16-.03-.3-.11-.46-.13-.18-.02-.37.01-.56.02-.01.54.38.71.63.97.45.45.65.45 1.13.07.34-.27.68-.35 1.05-.12.41.25.78.17 1.18-.04.71-.37 1.51-.25 2.27-.28.16-.01.32.16.48.21.26.08.53.14.8.17l1.06.08c.39.06.76.22 1.22.15-.03-.41-.27-.48-.53-.54-1.01-.27-1.01-.27-1.11-1.33-.01-.12-.1-.23-.16-.35-.13.06-.3.1-.39.2-.12.13-.17.31-.27.46-.12.21-.31.32-.55.27-.26-.06-.33-.27-.32-.51l.05-.84c0-.18.01-.36-.03-.53-.06-.24-.29-.3-.45-.12-.09.1-.13.24-.17.37l-.18.7c-.06.2-.15.37-.41.36-.24-.01-.36-.15-.43-.35l-.3-.91c-.06-.17-.1-.36-.21-.49-.09-.1-.29-.22-.39-.18-.14.05-.28.22-.32.36-.05.18.01.39.02.59l.03.9c-.01.14-.11.33-.22.37a.49.49 0 0 1-.43-.1c-.21-.23-.36-.51-.53-.78-.13-.2-.2-.45-.37-.59-.12-.1-.39-.13-.54-.08-.1.04-.19.29-.18.45.03.34.12.67.18 1 .1.46-.12.67-.59.57zm20.04-56.35a1.27 1.27 0 0 0 .39.26c.44.18.71 0 .71-.47 0-.3-.02-.6-.09-.89-.12-.5-.01-.94.25-1.37.1-.17.12-.38.19-.6-.66 0-1.23-.01-1.8 0-.2 0-.37.12-.35.33.05.42-.16.72-.39 1.03-.19.25-.13.46.1.68l.99 1.03zm-4.71 7.21c-.28.49-.2 1.33.17 1.74.23.25.47.25.61-.05.15-.32.23-.66.34-1-.02-.01-.04-.02-.06-.02-.01-.16 0-.32-.04-.47-.08-.24-.26-.39-.52-.43a.44.44 0 0 0-.5.23zm-1.84 1.21c.18.07.44.06.61-.02.46-.23.56-.69.63-1.25-.07-.1-.16-.34-.3-.37-.21-.05-.54-.03-.66.1-.23.25-.37.6-.5.92-.09.24-.03.52.22.62zm3.43-.98c-.16.49.15 1.27.6 1.51.2.11.4.09.53-.1.11-.16.16-.35.2-.45 0-.56-.43-1.1-.86-1.19-.22-.05-.4-.02-.47.23zm-4.65.26c.42-.2.56-.59.64-.98.03-.38-.14-.55-.46-.43-.31.12-.6.29-.86.5-.24.2-.22.56-.02.8.18.22.41.25.7.11z"/><path d="M28.26 66.86c.28-.21.36-.51.34-.94-.01-.04-.01-.18-.05-.31-.08-.24-.28-.36-.51-.32-.17.03-.39.13-.49.27-.24.34-.12.97.18 1.26.18.17.35.17.53.04zm-2.34.79c.55.01.9-.17 1.09-.48.16-.26.06-.45-.11-.64-.16-.17-.34-.19-.53-.05-.21.15-.44.29-.62.47-.11.11-.24.35-.19.44.07.15.29.22.36.26zm3.84 2.6c.08.12.22.28.33.28.1 0 .23-.18.29-.31a1.42 1.42 0 0 0 .12-.46c.06-.52-.14-.72-.67-.73-.55 0-.64.15-.38.64.1.2.18.4.31.58zm-5.12 25.6c.15-1.39-.12-2.71-.89-3.88-.2-.3-.51-.56-.82-.76-.3-.2-.45-.12-.7.25.76 1.01.95 1.46.81 2.16l-.44-.51c-.15-.19-.26-.41-.43-.56-.18-.15-.44-.24-.66-.05s-.18.44-.05.65c.12.2.27.4.44.56.49.49.9 1.01.95 1.74.02.25.18.44.44.52l.8.24c.31.07.52-.06.55-.36zm-3.52-1.38c-.29.25-.22.55-.11.81.2.48.5.88 1.11 1.03-.01-.82-.24-1.45-1-1.84zM58.66 77.2L60 75.9c.87 1.02 1.92 1.87 3.15 2.55s2.7 1.02 4.41 1.02c1.97 0 3.59-.45 4.87-1.36s1.92-2.26 1.92-4.05c0-1.28-.31-2.3-.94-3.07s-1.44-1.37-2.44-1.8a21.51 21.51 0 0 0-3.11-1.07l-2.9-.9c-.96-.32-1.83-.73-2.61-1.23a5.56 5.56 0 0 1-1.88-2c-.47-.83-.71-1.87-.71-3.13 0-1.18.31-2.26.94-3.24s1.53-1.77 2.72-2.36 2.61-.88 4.28-.88c1.46 0 2.69.19 3.68.58s1.82.84 2.47 1.38 1.16 1.06 1.51 1.57l-1.3 1.11c-.31-.41-.73-.84-1.27-1.29s-1.22-.84-2.05-1.17-1.87-.5-3.13-.5c-1.41 0-2.55.24-3.43.71s-1.53 1.08-1.94 1.82-.61 1.52-.61 2.34c0 1.23.36 2.18 1.07 2.86.72.68 1.63 1.21 2.74 1.59l3.39 1.04a20.83 20.83 0 0 1 2.67.88c.88.36 1.69.82 2.42 1.38s1.31 1.28 1.75 2.15c.43.87.65 1.94.65 3.22 0 1.48-.39 2.76-1.17 3.82s-1.83 1.88-3.16 2.46-2.81.86-4.45.86c-2.15 0-3.98-.42-5.5-1.25-1.51-.82-2.64-1.74-3.38-2.74zm35.64-.3l1.23 1.07c-.72.9-1.68 1.63-2.9 2.21-1.21.58-2.58.86-4.09.86-1.71 0-3.24-.41-4.56-1.23-1.33-.82-2.38-1.93-3.15-3.34s-1.15-2.98-1.15-4.72c0-1.76.39-3.34 1.17-4.74s1.84-2.5 3.18-3.32 2.84-1.23 4.51-1.23c1.56 0 2.88.27 3.97.82s2.01 1.31 2.78 2.28l-1.3 1c-.59-.77-1.32-1.38-2.21-1.82-.88-.45-1.96-.67-3.24-.67-1.36 0-2.56.35-3.62 1.04s-1.89 1.62-2.49 2.78-.9 2.45-.9 3.86c0 1.38.31 2.65.92 3.82a7.46 7.46 0 0 0 2.51 2.8c1.06.7 2.26 1.06 3.59 1.06 1.28 0 2.41-.23 3.4-.69.98-.46 1.76-1.07 2.35-1.84z"/><use xlink:href="#B"/><use xlink:href="#C"/><use xlink:href="#C" x="13.62"/><path d="M147.09 59.25v-2.53h2.42v2.53h-2.42zm.34 21.33V62.93h1.73v17.65h-1.73zm6.02-2.22l1.11-1.23c.74.74 1.59 1.31 2.55 1.71s2.09.59 3.4.59c.95 0 1.82-.12 2.63-.37.81-.24 1.45-.61 1.94-1.09.49-.49.73-1.1.73-1.84 0-.87-.22-1.53-.67-1.98s-1.12-.81-2.01-1.07l-3.3-.86a18.96 18.96 0 0 1-2.86-.9c-.83-.34-1.49-.84-1.98-1.48s-.73-1.5-.73-2.57.31-1.97.92-2.69 1.41-1.25 2.4-1.59c.98-.35 2.04-.52 3.17-.52 1.36 0 2.57.26 3.64.77s1.94 1.16 2.61 1.96l-1.19 1.07c-.61-.67-1.32-1.2-2.13-1.61s-1.77-.61-2.9-.61a9.73 9.73 0 0 0-2.21.25c-.73.17-1.34.49-1.82.96-.49.47-.73 1.17-.73 2.09 0 .74.27 1.33.8 1.76s1.23.78 2.07 1.04l2.61.69c.97.21 1.93.48 2.88.83.95.34 1.73.84 2.36 1.5.63.65.94 1.57.94 2.74 0 1.18-.34 2.15-1.04 2.92s-1.57 1.33-2.65 1.69c-1.07.36-2.19.54-3.34.54-1.64 0-3.04-.24-4.22-.73-1.16-.5-2.16-1.16-2.98-1.97zm18.8 2.22V54.99h1.73v11.47c.28-.54.71-1.11 1.29-1.73.58-.61 1.31-1.14 2.21-1.59.89-.45 2-.67 3.3-.67 2.51 0 4.26.7 5.26 2.09s1.5 3.28 1.5 5.66v10.36h-1.73V70.8c0-1.76-.21-3.13-.61-4.1-.41-.97-1-1.65-1.78-2.03s-1.73-.58-2.86-.58c-1.48 0-2.71.38-3.68 1.15a7.11 7.11 0 0 0-2.17 2.86c-.47 1.14-.71 2.27-.71 3.39v9.09h-1.75zm28 0V54.99h1.92l16.42 22.83V54.99h1.8v25.59h-1.92l-16.42-22.52v22.52h-1.8z"/><use xlink:href="#D"/><use xlink:href="#C" x="125.1"/><path d="M258.56 59.25v-2.53h2.42v2.53h-2.42zm.35 21.33V62.93h1.73v17.65h-1.73zm15.31.46c-1.66 0-3.18-.42-4.57-1.25-1.38-.83-2.48-1.95-3.3-3.36s-1.23-2.97-1.23-4.68.41-3.27 1.23-4.68 1.92-2.53 3.3-3.36 2.9-1.25 4.57-1.25c1.69 0 3.22.42 4.58 1.25a9.35 9.35 0 0 1 3.28 3.36c.82 1.41 1.23 2.97 1.23 4.68s-.41 3.27-1.23 4.68a9.35 9.35 0 0 1-3.28 3.36c-1.37.83-2.9 1.25-4.58 1.25zm0-1.57c1.38 0 2.62-.35 3.72-1.04s1.97-1.62 2.61-2.8.96-2.47.96-3.88a7.73 7.73 0 0 0-.98-3.82c-.65-1.16-1.53-2.1-2.63-2.82s-2.33-1.07-3.68-1.07c-1.38 0-2.62.35-3.72 1.04a7.5 7.5 0 0 0-2.61 2.78c-.64 1.16-.96 2.46-.96 3.89a7.73 7.73 0 0 0 .98 3.82c.65 1.17 1.53 2.1 2.65 2.82 1.1.72 2.33 1.08 3.66 1.08zm13.57 1.11V66.65v-2.19c0-.46-.03-.97-.08-1.53h1.61l.1 1.52.02 2.17c.28-.54.7-1.12 1.27-1.76.56-.64 1.3-1.2 2.22-1.67s2.05-.71 3.38-.71c2.51 0 4.26.7 5.26 2.09s1.5 3.28 1.5 5.66v10.36h-1.73V70.8c0-1.76-.21-3.13-.61-4.1s-1-1.65-1.78-2.03-1.73-.58-2.86-.58c-1.48 0-2.71.38-3.68 1.15a7.11 7.11 0 0 0-2.17 2.86c-.47 1.14-.71 2.27-.71 3.39v9.09h-1.74zm34.15 0h-1.65l-.06-1.21-.02-1.75c-.61.9-1.3 1.59-2.07 2.09a7.79 7.79 0 0 1-2.34 1.04c-.79.19-1.52.29-2.19.29-.97 0-1.94-.15-2.9-.44s-1.75-.83-2.38-1.59c-.63-.77-.94-1.84-.94-3.22 0-1.15.25-2.19.77-3.11s1.33-1.66 2.46-2.21 2.61-.83 4.45-.83l2.88.12 2.15.27v-1c0-1.94-.46-3.26-1.38-3.95s-2.25-1.04-3.99-1.04c-1.46 0-2.62.21-3.47.63-.86.42-1.51.83-1.98 1.21l-.92-1.19c.49-.46 1.27-.95 2.36-1.46s2.41-.77 3.97-.77c2.28 0 4.03.49 5.28 1.46 1.24.97 1.86 2.58 1.86 4.83v8.13 1.44l.04 1.17.07 1.09zm-1.81-6.52v-2.49c-.54-.13-1.21-.24-2.01-.33s-1.83-.13-3.09-.13c-1.3 0-2.34.16-3.11.48s-1.35.72-1.75 1.21-.65 1-.77 1.53-.17 1.02-.17 1.46c0 1.28.43 2.21 1.29 2.8s1.95.88 3.28.88c1.18 0 2.24-.26 3.18-.79s1.71-1.2 2.28-2.03c.59-.83.87-1.7.87-2.59zm6.95 6.52V54.99h1.73v25.59h-1.73zM64.91 121.5l-7.06-25.59h2.07l6.14 22.98 6.48-22.21h2.26l6.18 22.06 6.1-22.83h1.99L81.9 121.5h-2.03l-6.25-22.1-6.56 22.1h-2.15zm39.63 0h-1.65l-.06-1.21-.02-1.75c-.61.9-1.3 1.59-2.07 2.09a7.79 7.79 0 0 1-2.34 1.04c-.79.19-1.52.29-2.19.29-.97 0-1.94-.15-2.9-.44s-1.75-.83-2.38-1.59c-.63-.77-.94-1.84-.94-3.22 0-1.15.25-2.19.77-3.11s1.33-1.66 2.46-2.21 2.61-.83 4.45-.83l2.88.12 2.15.27v-1c0-1.94-.46-3.26-1.38-3.95s-2.25-1.04-3.99-1.04c-1.46 0-2.62.21-3.47.63-.86.42-1.51.83-1.98 1.21l-.92-1.19c.49-.46 1.27-.95 2.36-1.46s2.41-.77 3.97-.77c2.28 0 4.03.49 5.27 1.46s1.86 2.58 1.86 4.83v8.13 1.44l.04 1.17.08 1.09zm-1.8-6.52v-2.49c-.54-.13-1.21-.24-2.01-.33-.81-.09-1.83-.13-3.09-.13-1.3 0-2.34.16-3.11.48s-1.35.72-1.75 1.21-.65 1-.77 1.53-.17 1.02-.17 1.46c0 1.28.43 2.21 1.29 2.8s1.95.88 3.28.88c1.18 0 2.24-.26 3.18-.79s1.71-1.2 2.28-2.03c.58-.83.87-1.7.87-2.59z"/><use xlink:href="#E"/><path d="M129.9 121.5l1.15-25.59h1.99l8.9 15.19 9.09-15.19h1.76l1.15 25.59h-1.84l-.88-22.71-8.82 14.65h-1.19l-8.59-14.62-.88 22.67h-1.84zm43.19-3.68l1.23 1.04c-.77.95-1.81 1.7-3.13 2.26s-2.67.84-4.05.84c-1.74 0-3.29-.39-4.66-1.17a8.15 8.15 0 0 1-3.2-3.28c-.77-1.41-1.15-3.02-1.15-4.83 0-1.71.36-3.27 1.07-4.68.72-1.41 1.72-2.53 3.01-3.36s2.77-1.25 4.43-1.25c1.61 0 3.06.37 4.33 1.11 1.28.74 2.28 1.83 3.01 3.28s1.09 3.23 1.09 5.35h-15.04c.05 1.33.38 2.54.98 3.63s1.42 1.96 2.47 2.61 2.26.98 3.64.98c1.1 0 2.22-.23 3.36-.69 1.16-.46 2.03-1.08 2.61-1.84zm-13-6.18h13.12c-.23-2.15-.93-3.79-2.09-4.93s-2.65-1.71-4.47-1.71c-1.25 0-2.36.3-3.32.9s-1.72 1.4-2.28 2.4-.88 2.11-.96 3.34zm19.49 9.86v-13.93-2.19c0-.46-.03-.97-.08-1.53h1.61l.1 1.52.02 2.17c.28-.54.7-1.12 1.25-1.76s1.27-1.2 2.17-1.67 1.98-.71 3.26-.71c1.71 0 3.02.36 3.91 1.09.9.73 1.52 1.75 1.88 3.05.26-.49.69-1.05 1.3-1.69s1.39-1.21 2.34-1.71 2.05-.75 3.3-.75c1.59 0 2.83.31 3.74.94s1.55 1.52 1.92 2.69.56 2.54.56 4.12v10.36h-1.73v-9.78c0-1.76-.19-3.13-.56-4.1s-.9-1.65-1.59-2.03-1.55-.58-2.57-.58a5.87 5.87 0 0 0-3.17.9c-.96.6-1.73 1.38-2.3 2.34s-.86 1.99-.86 3.09v10.17h-1.73v-9.78c0-1.76-.18-3.13-.54-4.1s-.88-1.65-1.57-2.03-1.55-.58-2.57-.58c-1.41 0-2.58.38-3.53 1.15a7.11 7.11 0 0 0-2.13 2.86c-.47 1.14-.71 2.27-.71 3.39v9.09h-1.72z"/><use xlink:href="#B" x="113.59" y="40.92"/><use xlink:href="#E" x="124.02"/><path d="M246.36 100.17v-2.53h2.42v2.53h-2.42zm.35 21.33v-17.65h1.73v17.65h-1.73z"/><use xlink:href="#D" x="27.47" y="40.92"/><path d="M272.68 121.5V95.91h1.73v25.59h-1.73z"/></g><defs ><path id="B" d="M106.61 81.04c-1.66 0-3.18-.42-4.57-1.25-1.38-.83-2.48-1.95-3.3-3.36s-1.23-2.97-1.23-4.68.41-3.27 1.23-4.68 1.92-2.53 3.3-3.36 2.9-1.25 4.57-1.25c1.69 0 3.22.42 4.58 1.25a9.35 9.35 0 0 1 3.28 3.36c.82 1.41 1.23 2.97 1.23 4.68s-.41 3.27-1.23 4.68a9.35 9.35 0 0 1-3.28 3.36c-1.36.83-2.89 1.25-4.58 1.25zm0-1.57c1.38 0 2.62-.35 3.72-1.04s1.97-1.62 2.61-2.8.96-2.47.96-3.88a7.73 7.73 0 0 0-.98-3.82c-.65-1.16-1.53-2.1-2.63-2.82s-2.33-1.07-3.68-1.07c-1.38 0-2.62.35-3.72 1.04a7.5 7.5 0 0 0-2.61 2.78c-.64 1.16-.96 2.46-.96 3.89a7.73 7.73 0 0 0 .98 3.82c.65 1.17 1.53 2.1 2.65 2.82 1.11.72 2.33 1.08 3.66 1.08z"/><path id="C" d="M121.69 75.17V64.54h-3.53v-1.61h3.53V57.1h1.73v5.83h5.83v1.61h-5.83v10.2c0 1.38.14 2.41.42 3.09s.66 1.12 1.13 1.32 1.02.31 1.63.31c.64 0 1.19-.12 1.65-.35s.92-.63 1.38-1.19l1.07 1.04c-.51.67-1.09 1.18-1.75 1.53-.65.36-1.5.54-2.55.54-.92 0-1.74-.17-2.46-.5s-1.27-.92-1.67-1.76-.58-2.04-.58-3.6z"/><path id="D" d="M240.07 80.58h-1.65l-.06-1.21-.02-1.75c-.61.9-1.3 1.59-2.07 2.09a7.79 7.79 0 0 1-2.34 1.04c-.79.19-1.52.29-2.19.29-.97 0-1.94-.15-2.9-.44s-1.75-.83-2.38-1.59c-.63-.77-.94-1.84-.94-3.22 0-1.15.25-2.19.77-3.11s1.33-1.66 2.46-2.21 2.61-.83 4.45-.83l2.88.12 2.15.27v-1c0-1.94-.46-3.26-1.38-3.95s-2.25-1.04-3.99-1.04c-1.46 0-2.62.21-3.47.63-.86.42-1.51.83-1.98 1.21l-.92-1.19c.49-.46 1.27-.95 2.36-1.46s2.41-.77 3.97-.77c2.28 0 4.03.49 5.28 1.46 1.24.97 1.86 2.58 1.86 4.83v8.13 1.44l.04 1.17.07 1.09zm-1.8-6.52v-2.49c-.54-.13-1.21-.24-2.01-.33s-1.83-.13-3.09-.13c-1.3 0-2.34.16-3.11.48s-1.35.72-1.75 1.21-.65 1-.77 1.53-.17 1.02-.17 1.46c0 1.28.43 2.21 1.29 2.8s1.95.88 3.28.88c1.18 0 2.24-.26 3.18-.79s1.71-1.2 2.28-2.03c.58-.83.87-1.7.87-2.59z"/><path id="E" d="M109.76 121.5v-13.93-2.19c0-.46-.03-.97-.08-1.53h1.61l.1 1.61.02 2.26c.28-.54.69-1.12 1.23-1.75s1.24-1.17 2.11-1.63 1.93-.69 3.18-.69c.56 0 1.05.09 1.46.27l-.5 1.65c-.18-.08-.39-.13-.63-.15l-.67-.04a5.16 5.16 0 0 0-3.18 1.04c-.92.69-1.64 1.58-2.15 2.67s-.77 2.22-.77 3.4v9.01h-1.73z"/></defs></svg>